<svg id="Layer_1" data-name="Layer 1" xmlns="http://www.w3.org/2000/svg" viewBox="0 0 2166.31 732.48"><defs><style>.cls-1,.cls-2{fill:#232f3b;}.cls-2{font-size:144px;font-family:HelveticaNowDisplay-XBd, Helvetica Now Display;}.cls-3{letter-spacing:0em;}.cls-4{letter-spacing:-0.01em;}.cls-5{letter-spacing:-0.01em;}</style></defs><path class="cls-1" d="M240.3,240.3l67.94,104.88a180.85,180.85,0,0,1,29.09,98.35v46.21h55.49V439.18A180.78,180.78,0,0,0,368,347.68L305,240.3Z"/><rect class="cls-1" x="801.59" y="240.3" width="55.5" height="249.44"/><polygon class="cls-1" points="438.46 313.8 480.89 240.3 396.04 240.3 438.46 313.8"/><path class="cls-1" d="M1016.06,365c-.2-66.53-41.11-124.45-129.55-124.72,47,5.5,70.27,65.05,70.68,124.72-.41,59.68-23.72,119.23-70.68,124.72C975,489.48,1015.86,431.55,1016.06,365Z"/><path class="cls-1" d="M733.21,430.23c0-54.24-34.87-76.62-92.55-97.29-46.06-16.78-62.42-29.27-62.42-59.4,0-13.71,4.84-25.21,13.52-33.24h-7.35c-38.95,1-57.4,35.78-57.4,59.5,0,50.79,32.72,74,83.51,91.69,51.66,18.94,70.17,32.29,70.17,64.14,0,14.08-4.94,25.74-13.84,34.11h6C714.89,487.43,733.21,455.1,733.21,430.23Z"/><polygon class="cls-1" points="567.88 416.25 525.45 489.75 610.3 489.75 567.88 416.25"/><polygon class="cls-1" points="685.85 313.8 728.28 240.3 643.43 240.3 685.85 313.8"/><path class="cls-1" d="M1281,430.23c0-54.24-34.87-76.62-92.55-97.29-46.07-16.78-62.42-29.27-62.42-59.4,0-13.71,4.84-25.21,13.51-33.24h-7.34c-39,1-57.4,35.78-57.4,59.5,0,50.79,32.71,74,83.51,91.69,51.66,18.94,70.17,32.29,70.17,64.14,0,14.08-4.94,25.74-13.84,34.11h6C1262.63,487.43,1281,455.1,1281,430.23Z"/><polygon class="cls-1" points="1115.62 416.25 1073.2 489.75 1158.05 489.75 1115.62 416.25"/><polygon class="cls-1" points="1233.6 313.8 1276.03 240.3 1191.17 240.3 1233.6 313.8"/><text class="cls-2" transform="translate(1368.61 343.55)">Speci<tspan class="cls-3" x="380.3" y="0">a</tspan><tspan x="460.65" y="0">l</tspan><tspan class="cls-4" x="0" y="146">L</tspan><tspan x="79.78" y="146">ogi</tspan><tspan class="cls-5" x="286.7" y="146">s</tspan><tspan x="360.72" y="146">tics</tspan></text></svg>