<?xml version="1.0" encoding="utf-8"?>
<!-- Generator: Adobe Illustrator 25.4.1, SVG Export Plug-In . SVG Version: 6.00 Build 0)  -->
<svg version="1.1" id="Layer_2" xmlns="http://www.w3.org/2000/svg" xmlns:xlink="http://www.w3.org/1999/xlink" x="0px" y="0px"
	 viewBox="0 0 2166.3 732.5" style="enable-background:new 0 0 2166.3 732.5;" xml:space="preserve">
<style type="text/css">
	.st0{fill:#222E3B;}
</style>
<path class="st0" d="M240.3,240.3l67.9,104.9c19,29.3,29.1,63.4,29.1,98.3v46.2h55.5v-50.6c0-32.2-8.6-63.8-24.9-91.5l-63-107.4
	H240.3z"/>
<g>
	<rect x="801.6" y="240.3" class="st0" width="55.5" height="249.4"/>
</g>
<polygon class="st0" points="438.5,313.8 480.9,240.3 396,240.3 "/>
<path class="st0" d="M1016.1,365c-0.2-66.5-41.1-124.5-129.6-124.7c47,5.5,70.3,65,70.7,124.7c-0.4,59.7-23.7,119.2-70.7,124.7
	C975,489.5,1015.9,431.5,1016.1,365z"/>
<g>
	<path class="st0" d="M733.2,430.2c0-54.2-34.9-76.6-92.6-97.3c-46.1-16.8-62.4-29.3-62.4-59.4c0-13.7,4.8-25.2,13.5-33.2h-7.3
		c-39,1-57.4,35.8-57.4,59.5c0,50.8,32.7,74,83.5,91.7c51.7,18.9,70.2,32.3,70.2,64.1c0,14.1-4.9,25.7-13.8,34.1h6
		C714.9,487.4,733.2,455.1,733.2,430.2z"/>
</g>
<polygon class="st0" points="567.9,416.2 525.4,489.7 610.3,489.7 "/>
<polygon class="st0" points="685.9,313.8 728.3,240.3 643.4,240.3 "/>
<g>
	<path class="st0" d="M1281,430.2c0-54.2-34.9-76.6-92.6-97.3c-46.1-16.8-62.4-29.3-62.4-59.4c0-13.7,4.8-25.2,13.5-33.2h-7.3
		c-39,1-57.4,35.8-57.4,59.5c0,50.8,32.7,74,83.5,91.7c51.7,18.9,70.2,32.3,70.2,64.1c0,14.1-4.9,25.7-13.8,34.1h6
		C1262.6,487.4,1281,455.1,1281,430.2z"/>
</g>
<polygon class="st0" points="1115.6,416.2 1073.2,489.7 1158,489.7 "/>
<polygon class="st0" points="1233.6,313.8 1276,240.3 1191.2,240.3 "/>
<g>
	<path class="st0" d="M1371.3,309.8h23.6c0.3,14,9.5,17,22.2,17c11.5,0,17.4-4.2,17.4-11.8c0-6.9-4.3-9.6-18.4-12.2l-8.4-1.6
		c-21.6-3.7-34.3-13.5-34.3-32.1c0-17.4,13.2-30.4,40-30.4c27.9,0,41.9,12.4,42.8,33.4h-23c-0.6-9.5-5.6-14.4-19.3-14.4
		c-10.7,0-15.7,3.9-15.7,10.4c0,7.2,4.8,10.1,17.4,12.5l8.6,1.6c24.6,4.5,35.4,13.8,35.4,31.2c0,21.6-17.3,32.4-43.5,32.4
		C1387,345.8,1371.5,332,1371.3,309.8z"/>
	<path class="st0" d="M1545.4,306.4c0,23.6-12.2,38.9-32.4,38.9c-10.1,0-17.1-4-21.9-10.8v37.3h-22.5V269.2h21.9v9.9
		c4.8-7.2,12-11.7,22.5-11.7C1533.2,267.5,1545.4,282.8,1545.4,306.4z M1522.7,305.8c0-14.1-5.9-20.3-15.8-20.3
		c-10.1,0-16,6.8-16,20.9c0,14.1,5.9,20.9,16,20.9C1516.8,327.3,1522.7,319.9,1522.7,305.8z"/>
	<path class="st0" d="M1629,313h-55c1.6,10.7,8.2,15.7,17,15.7c7.5,0,12.4-3,15-8.4h21.3c-4,15.7-18.4,24.9-36.3,24.9
		c-23,0-38.6-15.3-38.6-38.9c0-23.5,15.1-38.9,38.3-38.9s38.3,16,38.3,41V313z M1574.1,298.8h32.8c-1.6-9.2-7.5-14.7-16.6-14.7
		C1582.2,284.1,1575.8,288.4,1574.1,298.8z"/>
	<path class="st0" d="M1636.4,306.4c0-23.6,14.8-38.9,38.2-38.9c20.4,0,34.3,11.4,36.3,29.7h-22.3c-1.3-7.9-6.8-11.4-14-11.4
		c-9.5,0-15.4,6.3-15.4,20.6s6,20.4,15.4,20.4c7.5,0,13.4-3.7,14.4-12.5h22.3c-1.6,19.2-16.1,31-36.7,31
		C1651.4,345.3,1636.4,330,1636.4,306.4z"/>
	<path class="st0" d="M1719.8,269.2h22.5v74.3h-22.5V269.2z M1720.4,241.7h21.5v19h-21.5V241.7z"/>
	<path class="st0" d="M1804.3,343.5c-1-1.9-1.7-5-1.9-8.4c-4.8,6.3-12.8,10.1-23.8,10.1c-15.6,0-27.1-7.9-27.1-22.8
		c0-12.8,7.6-21.3,29.1-23.2l11.7-1c6.3-0.7,9.6-2.6,9.6-7.3c0-4.5-2.4-7.5-11.4-7.5c-8.8,0-12.4,2.2-13.1,9.8h-22.3
		c1.2-16.4,11.7-25.8,35.6-25.8c23.3,0,33.1,8.8,33.1,22.9v39.5c0,5.5,1,10.8,3,13.7H1804.3z M1802,314.3v-5.5
		c-1.6,1.7-4,2.4-7.5,2.9l-9.2,1c-7.6,0.9-10.8,3.7-10.8,8.9s3.9,8.5,10.9,8.5C1794.1,330.2,1802,326,1802,314.3z"/>
	<path class="st0" d="M1835.7,241h22.5v102.5h-22.5V241z"/>
	<path class="st0" d="M1900,285.7v34.7c0,5.5,2.7,6.5,8.5,6.5h5.8v16.7c-3.5,0.4-7.1,0.6-10.4,0.6c-18.6,0-26.4-6-26.4-21.3v-37.2
		h-11.1v-16.4h11.1v-22h22.5v22h14.3v16.4H1900z"/>
	<path class="st0" d="M1996.4,269.2l-26.9,77.2c-6.5,18.7-15,25.5-37,25.5c-4.3,0-6.5-0.1-8.8-0.3v-17.3h7.2
		c8.4,0,11.2-4.8,11.2-10.4c0-4.2-1.7-9.5-3.5-14.4l-21.3-60.3h24.2l3.3,10.5c4.3,14.5,8.6,29.8,12.7,46.8
		c4-17.1,8.2-32.3,12.4-46.7l3.3-10.7H1996.4z"/>
	<path class="st0" d="M1447.7,467.8v21.7h-71.3V387h24.3v80.8H1447.7z"/>
	<path class="st0" d="M1451.8,452.4c0-23.6,15.3-38.9,39-38.9c23.6,0,38.9,15.3,38.9,38.9s-15.3,38.9-38.9,38.9
		C1467.1,491.3,1451.8,476,1451.8,452.4z M1507,452.4c0-14.1-6.2-20.9-16.1-20.9c-10.1,0-16.3,6.8-16.3,20.9
		c0,14.1,6.2,20.9,16.3,20.9C1500.8,473.3,1507,466.5,1507,452.4z"/>
	<path class="st0" d="M1613.3,415.2v72c0,20-13.5,32.3-38,32.3c-23.2,0-35.1-11.2-36-27.2h22.2c0.6,6.9,5.3,10.4,14.3,10.4
		c10.1,0,15.1-5.5,15.1-14.5v-10.7c-4.5,6.5-11.2,10.5-21.3,10.5c-19.7,0-32.8-15.4-32.8-37.3c0-22,12.7-37.2,32.4-37.2
		c10.7,0,17.9,4.5,22.3,11.5v-9.8H1613.3z M1591.2,450.7c0-12.5-5.9-19.2-16-19.2c-9.9,0-15.8,7.2-15.8,19.4c0,12.4,5.9,19,15.8,19
		C1585.3,470,1591.2,463.2,1591.2,450.7z"/>
	<path class="st0" d="M1626.2,415.2h22.5v74.3h-22.5V415.2z M1626.8,387.7h21.5v19h-21.5V387.7z"/>
	<path class="st0" d="M1657.3,465.9h21.9c0.9,8.1,4.9,10.8,14.3,10.8c9.1,0,12.5-2.7,12.5-7.2s-2.7-6.6-12.8-8.2l-9.6-1.6
		c-15.7-2.4-25.1-9.5-25.1-22.8c0-14.8,11.7-23.5,33.4-23.5c25.1,0,33.8,10.9,34.6,25.5h-20.9c-0.3-8.1-5.6-10.5-13.7-10.5
		s-11.4,2.7-11.4,7.1c0,4.5,3.6,6.3,10.8,7.5l11.1,1.6c17.6,2.7,26.1,9.8,26.1,23c0,15.4-13.1,24-35.4,24
		C1670.3,491.7,1658.6,484.4,1657.3,465.9z"/>
	<path class="st0" d="M1764.5,431.7v34.7c0,5.5,2.7,6.5,8.5,6.5h5.8v16.7c-3.5,0.4-7.1,0.6-10.4,0.6c-18.6,0-26.4-6-26.4-21.3v-37.2
		h-11.1v-16.4h11.1v-22h22.5v22h14.3v16.4H1764.5z"/>
	<path class="st0" d="M1788.2,415.2h22.5v74.3h-22.5V415.2z M1788.8,387.7h21.5v19h-21.5V387.7z"/>
	<path class="st0" d="M1820.8,452.4c0-23.6,14.8-38.9,38.2-38.9c20.4,0,34.3,11.4,36.3,29.7h-22.3c-1.3-7.9-6.8-11.4-14-11.4
		c-9.5,0-15.4,6.3-15.4,20.6s6,20.4,15.4,20.4c7.5,0,13.4-3.7,14.4-12.5h22.3c-1.6,19.2-16.1,31-36.7,31
		C1835.7,491.3,1820.8,476,1820.8,452.4z"/>
	<path class="st0" d="M1899.7,465.9h21.9c0.9,8.1,4.9,10.8,14.3,10.8c9.1,0,12.5-2.7,12.5-7.2s-2.7-6.6-12.8-8.2l-9.6-1.6
		c-15.7-2.4-25.1-9.5-25.1-22.8c0-14.8,11.7-23.5,33.4-23.5c25.1,0,33.8,10.9,34.6,25.5h-20.9c-0.3-8.1-5.6-10.5-13.7-10.5
		s-11.4,2.7-11.4,7.1c0,4.5,3.6,6.3,10.8,7.5l11.1,1.6c17.6,2.7,26.1,9.8,26.1,23c0,15.4-13.1,24-35.4,24
		C1912.6,491.7,1901,484.4,1899.7,465.9z"/>
</g>
</svg>
