<svg width="1913" height="729" viewBox="0 0 1913 729" fill="none"
  xmlns="http://www.w3.org/2000/svg">
  <path d="M241.46 239.52L309.4 344.39C328.383 373.68 338.486 407.837 338.49 442.74V489H394V438.4C394.001 406.228 385.419 374.639 369.14 346.89L306.14 239.52H241.46Z" fill="#222E3B"/>
  <path d="M858.25 239.52H802.75V488.96H858.25V239.52Z" fill="#222E3B"/>
  <path d="M439.62 313.01L482.05 239.52H397.19L439.62 313.01Z" fill="#222E3B"/>
  <path d="M1017.22 364.24C1017.02 297.71 976.11 239.78 887.67 239.52C934.67 245.01 957.94 304.52 958.35 364.24C957.94 423.91 934.62 483.46 887.67 488.96C976.11 488.69 1017 430.77 1017.22 364.24Z" fill="#222E3B"/>
  <path d="M734.37 429.45C734.37 375.21 699.5 352.82 641.82 332.16C595.76 315.37 579.4 302.89 579.4 272.75C579.4 259.05 584.24 247.55 592.91 239.52H585.57C546.57 240.52 528.17 275.29 528.17 299.01C528.17 349.81 560.89 373.06 611.68 390.71C663.34 409.65 681.85 422.99 681.85 454.85C681.85 468.93 676.91 480.59 668.01 488.96H674.01C716 486.65 734.37 454.31 734.37 429.45Z" fill="#222E3B"/>
  <path d="M569.03 415.46L526.61 488.96H611.46L569.03 415.46Z" fill="#222E3B"/>
  <path d="M687.01 313.01L729.44 239.52H644.59L687.01 313.01Z" fill="#222E3B"/>
  <path d="M1282.12 429.45C1282.12 375.21 1247.25 352.82 1189.56 332.16C1143.5 315.37 1127.14 302.89 1127.14 272.75C1127.14 259.05 1131.99 247.55 1140.66 239.52H1133.32C1094.32 240.52 1075.92 275.29 1075.92 299.01C1075.92 349.81 1108.63 373.06 1159.43 390.71C1211.09 409.65 1229.6 422.99 1229.6 454.85C1229.6 468.93 1224.66 480.59 1215.75 488.96H1221.75C1263.79 486.65 1282.12 454.31 1282.12 429.45Z" fill="#222E3B"/>
  <path d="M1116.78 415.46L1074.36 488.96H1159.21L1116.78 415.46Z" fill="#222E3B"/>
  <path d="M1234.76 313.01L1277.18 239.52H1192.33L1234.76 313.01Z" fill="#222E3B"/>
  <path d="M1412.07 239.756H1435V344H1412.07V239.756ZM1478.2 259.028H1446.96V239.756H1532.37V259.028H1501.12V344H1478.2V259.028Z" fill="#222E3B"/>
</svg>
