<svg id="Layer_1" data-name="Layer 1" xmlns="http://www.w3.org/2000/svg" viewBox="0 0 1826.3 730.04"><defs><style>.cls-1{fill:#222e3b;}</style></defs><path class="cls-1" d="M1457,349.62l-8.56-24h-47.68l-8.41,24h-21.25l41.43-108.83h24.15l42.18,108.83ZM1407,308h35.16l-4.28-11.77q-5.36-13.61-13.45-37.29-6.42,18.94-13.3,37.29Z"/><path class="cls-1" d="M1533.72,269.83v17.73h-4.89q-11,0-16.89,5.58t-5.88,16.43v40.05H1486.8V270.75h18.65v14.06q6.57-15.29,23.54-15.29A32.56,32.56,0,0,1,1533.72,269.83Z"/><path class="cls-1" d="M1586,285.42h-15.59v42.64q0,3.82,2.06,5.35t7,1.53H1586v14.68c-4.18.4-7.54.61-10.09.61q-12.84,0-18.72-4.82t-5.89-15.36V285.42h-12.22V270.75h12.22V247.82h19.11v22.93H1586Z"/><path class="cls-1" d="M241.15,240.3l67.93,104.88a180.76,180.76,0,0,1,29.09,98.35v46.21h55.5V439.18a180.78,180.78,0,0,0-24.86-91.5l-63-107.38Z"/><rect class="cls-1" x="802.44" y="240.3" width="55.5" height="249.44"/><polygon class="cls-1" points="439.31 313.8 481.73 240.3 396.88 240.3 439.31 313.8"/><path class="cls-1" d="M1016.91,365c-.2-66.53-41.11-124.45-129.56-124.72,47,5.5,70.27,65.05,70.68,124.72-.41,59.68-23.72,119.23-70.68,124.72C975.8,489.48,1016.71,431.55,1016.91,365Z"/><path class="cls-1" d="M734.06,430.23c0-54.24-34.87-76.62-92.56-97.29-46.06-16.78-62.42-29.27-62.42-59.4,0-13.71,4.85-25.21,13.52-33.24h-7.34c-39,1-57.4,35.78-57.4,59.5,0,50.79,32.71,74,83.51,91.69,51.66,18.94,70.17,32.29,70.17,64.14,0,14.08-4.94,25.74-13.85,34.11h6C715.73,487.43,734.06,455.1,734.06,430.23Z"/><polygon class="cls-1" points="568.72 416.25 526.3 489.75 611.15 489.75 568.72 416.25"/><polygon class="cls-1" points="686.7 313.8 729.13 240.3 644.27 240.3 686.7 313.8"/><path class="cls-1" d="M1281.81,430.23c0-54.24-34.87-76.62-92.56-97.29-46.06-16.78-62.42-29.27-62.42-59.4,0-13.71,4.84-25.21,13.52-33.24H1133c-39,1-57.41,35.78-57.41,59.5,0,50.79,32.72,74,83.52,91.69,51.66,18.94,70.17,32.29,70.17,64.14,0,14.08-4.94,25.74-13.85,34.11h6C1263.48,487.43,1281.81,455.1,1281.81,430.23Z"/><polygon class="cls-1" points="1116.47 416.25 1074.04 489.75 1158.89 489.75 1116.47 416.25"/><polygon class="cls-1" points="1234.45 313.8 1276.87 240.3 1192.02 240.3 1234.45 313.8"/></svg>