<svg id="Layer_1" data-name="Layer 1" xmlns="http://www.w3.org/2000/svg" viewBox="0 0 2166.31 732.48"><defs><style>.cls-1{fill:#222e3b;}</style></defs><path class="cls-1" d="M1398.83,331.12h51.82v18.5H1378.2V240.79h20.63Z"/><path class="cls-1" d="M1460.89,349.62V270.75h19.26v78.87Zm.15-89.11v-18h19v18Z"/><path class="cls-1" d="M1531.2,255.61q-9.95,0-9.94,9.48v5.66h16.2v14.67h-16.2v64.2h-19.1v-64.2h-12.23V270.75h12.23v-6q0-11.48,6.42-18t19.41-6.5a90.55,90.55,0,0,1,9.93.46v14.82Z"/><path class="cls-1" d="M1618.78,316.14h-59q1.08,10.1,6.35,15.21t14.13,5.12q13.15,0,18-11.31h18.49A32.86,32.86,0,0,1,1604,344.34q-9.78,7.11-23.84,7.11-17.58,0-28.43-11.31t-10.85-30q0-18.65,10.7-30t28.27-11.31q17.9,0,28.43,11.77t10.55,30.88Zm-58.85-13.45h39.59q-1.21-8.71-6.42-13.75t-13.45-5.05Q1562.69,283.89,1559.93,302.69Z"/><path class="cls-1" d="M1385.3,482.24q-12.15-9.93-12.3-28.43h20.33q.15,11.61,7,16.66t20,5q10.69,0,16.35-4.05t5.66-11.69a11.18,11.18,0,0,0-4.82-9.78q-4.82-3.36-17.5-6l-9.17-1.84q-35-6.57-35-33,0-14.07,10.7-22.39t29.65-8.33q21.56,0,32.64,9.17t11.69,25.67h-20q-.62-9.32-6.2-13.75t-17.8-4.43q-9.48,0-14.52,3.51a11.4,11.4,0,0,0-5.05,9.94q0,6.57,4.67,10.08t16.58,6l9.48,1.83q19.1,3.82,27.59,11.39t8.48,20.86q0,15.9-11.62,24.68t-32.4,8.79Q1397.45,492.17,1385.3,482.24Z"/><path class="cls-1" d="M1484.27,480.25q-10.69-11.16-10.7-30t10.7-30.11Q1494.82,409,1512.55,409q15.43,0,25.22,8.18t11.46,22.09H1530a17.3,17.3,0,0,0-6-10.55,17.77,17.77,0,0,0-11.46-3.67q-9,0-14.14,6.5t-5.12,18.72q0,12.24,5.2,18.73t14.06,6.49a18.27,18.27,0,0,0,11.85-3.89q4.81-3.9,5.88-11.24h19.26q-1.53,14.22-11.62,22.7t-25.37,8.48Q1495.12,491.56,1484.27,480.25Z"/><path class="cls-1" d="M1560.09,489.73V410.86h19.26v78.87Zm.15-89.11v-18h19v18Z"/><path class="cls-1" d="M1669.37,456.25h-59q1.06,10.1,6.34,15.21t14.14,5.12q13.14,0,18-11.31h18.5a32.93,32.93,0,0,1-12.84,19.18q-9.78,7.11-23.85,7.11-17.57,0-28.43-11.31t-10.85-30q0-18.65,10.7-30Q1613,409,1630.4,409q17.88,0,28.43,11.77t10.54,30.88Zm-58.84-13.45h39.59q-1.23-8.7-6.42-13.75T1630.25,424Q1613.27,424,1610.53,442.8Z"/><path class="cls-1" d="M1745.26,416.44q7.42,7.41,7.42,21v52.28h-19.26V440.66q0-15-14.83-15a16.67,16.67,0,0,0-12.45,5.27q-5.13,5.27-5.13,14.6v44.17h-19.25V410.86h18.64v11.31q9-13.14,24.61-13.15Q1737.85,409,1745.26,416.44Z"/><path class="cls-1" d="M1775.45,480.25q-10.7-11.16-10.7-30t10.7-30.11Q1786,409,1803.73,409q15.43,0,25.22,8.18t11.46,22.09h-19.26a17.24,17.24,0,0,0-6-10.55,17.79,17.79,0,0,0-11.46-3.67q-9,0-14.14,6.5t-5.12,18.72q0,12.24,5.2,18.73t14.06,6.49a18.27,18.27,0,0,0,11.85-3.89q4.82-3.9,5.88-11.24h19.26q-1.53,14.22-11.62,22.7t-25.37,8.48Q1786.3,491.56,1775.45,480.25Z"/><path class="cls-1" d="M1926,456.25h-59q1.07,10.1,6.34,15.21t14.14,5.12q13.14,0,18-11.31H1924a32.93,32.93,0,0,1-12.84,19.18q-9.78,7.11-23.84,7.11-17.58,0-28.43-11.31t-10.85-30q0-18.65,10.7-30T1887,409q17.88,0,28.43,11.77T1926,451.67Zm-58.85-13.45h39.59q-1.23-8.7-6.42-13.75T1886.88,424Q1869.92,424,1867.16,442.8Z"/><path class="cls-1" d="M240.3,240.3l67.94,104.88a180.85,180.85,0,0,1,29.09,98.35v46.21h55.49V439.18A180.78,180.78,0,0,0,368,347.68L305,240.3Z"/><rect class="cls-1" x="801.59" y="240.3" width="55.5" height="249.44"/><polygon class="cls-1" points="438.46 313.8 480.89 240.3 396.04 240.3 438.46 313.8"/><path class="cls-1" d="M1016.06,365c-.2-66.53-41.11-124.45-129.55-124.72,47,5.5,70.27,65.05,70.68,124.72-.41,59.68-23.72,119.23-70.68,124.72C975,489.48,1015.86,431.55,1016.06,365Z"/><path class="cls-1" d="M733.21,430.23c0-54.24-34.87-76.62-92.55-97.29-46.06-16.78-62.42-29.27-62.42-59.4,0-13.71,4.84-25.21,13.52-33.24h-7.35c-38.95,1-57.4,35.78-57.4,59.5,0,50.79,32.72,74,83.51,91.69,51.66,18.94,70.17,32.29,70.17,64.14,0,14.08-4.94,25.74-13.84,34.11h6C714.89,487.43,733.21,455.1,733.21,430.23Z"/><polygon class="cls-1" points="567.88 416.25 525.45 489.75 610.3 489.75 567.88 416.25"/><polygon class="cls-1" points="685.85 313.8 728.28 240.3 643.43 240.3 685.85 313.8"/><path class="cls-1" d="M1281,430.23c0-54.24-34.87-76.62-92.55-97.29-46.07-16.78-62.42-29.27-62.42-59.4,0-13.71,4.84-25.21,13.51-33.24h-7.34c-39,1-57.4,35.78-57.4,59.5,0,50.79,32.71,74,83.51,91.69,51.66,18.94,70.17,32.29,70.17,64.14,0,14.08-4.94,25.74-13.84,34.11h6C1262.63,487.43,1281,455.1,1281,430.23Z"/><polygon class="cls-1" points="1115.62 416.25 1073.2 489.75 1158.05 489.75 1115.62 416.25"/><polygon class="cls-1" points="1233.6 313.8 1276.03 240.3 1191.17 240.3 1233.6 313.8"/></svg>