<svg id="Layer_1" data-name="Layer 1" xmlns="http://www.w3.org/2000/svg" viewBox="0 0 1522.42 732.48"><defs><style>.cls-1{fill:#222e3b;}</style></defs><path class="cls-1" d="M241.46,242.52,309.4,347.39a180.87,180.87,0,0,1,29.09,98.35V492H394V441.4a180.84,180.84,0,0,0-24.86-91.51l-63-107.37Z"/><rect class="cls-1" x="802.75" y="242.52" width="55.5" height="249.44"/><polygon class="cls-1" points="439.62 316.01 482.05 242.52 397.19 242.52 439.62 316.01"/><path class="cls-1" d="M1017.22,367.24c-.2-66.53-41.11-124.46-129.55-124.72,47,5.49,70.27,65,70.68,124.72-.41,59.67-23.73,119.22-70.68,124.72C976.11,491.69,1017,433.77,1017.22,367.24Z"/><path class="cls-1" d="M734.37,432.45c0-54.24-34.87-76.63-92.55-97.29-46.06-16.79-62.42-29.27-62.42-59.41,0-13.7,4.84-25.2,13.51-33.23h-7.34c-39,1-57.4,35.77-57.4,59.49,0,50.8,32.72,74.05,83.51,91.7,51.66,18.94,70.17,32.28,70.17,64.14,0,14.08-4.94,25.74-13.84,34.11h6C716,489.65,734.37,457.31,734.37,432.45Z"/><polygon class="cls-1" points="569.03 418.46 526.61 491.96 611.46 491.96 569.03 418.46"/><polygon class="cls-1" points="687.01 316.01 729.44 242.52 644.59 242.52 687.01 316.01"/><path class="cls-1" d="M1282.12,432.45c0-54.24-34.87-76.63-92.56-97.29-46.06-16.79-62.42-29.27-62.42-59.41,0-13.7,4.85-25.2,13.52-33.23h-7.34c-39,1-57.4,35.77-57.4,59.49,0,50.8,32.71,74.05,83.51,91.7,51.66,18.94,70.17,32.28,70.17,64.14,0,14.08-4.94,25.74-13.85,34.11h6C1263.79,489.65,1282.12,457.31,1282.12,432.45Z"/><polygon class="cls-1" points="1116.78 418.46 1074.36 491.96 1159.21 491.96 1116.78 418.46"/><polygon class="cls-1" points="1234.76 316.01 1277.18 242.52 1192.33 242.52 1234.76 316.01"/></svg>