<?xml version="1.0" encoding="utf-8"?>
<!-- Generator: Adobe Illustrator 25.2.3, SVG Export Plug-In . SVG Version: 6.00 Build 0)  -->
<svg version="1.1" id="Layer_1" xmlns="http://www.w3.org/2000/svg" xmlns:xlink="http://www.w3.org/1999/xlink" x="0px" y="0px"
	 viewBox="0 0 2048 487.9" style="enable-background:new 0 0 2048 487.9;" xml:space="preserve">
<style type="text/css">
	.st0{fill:#FFFFFF;}
</style>
<g>
	<g>
		<path class="st0" d="M9.1,0.9l132.4,204.2c37.1,57.3,56.9,124.1,56.9,192.4v84.1h108.6V389c0-62.9-16.8-124.7-48.6-179L135.6,0.9
			H9.1z"/>
	</g>
	<g>
		<g>
			<rect x="1106.5" class="st0" width="108.6" height="481.6"/>
		</g>
	</g>
	<g>
		<g>
			<path class="st0" d="M2038.9,370.3c0-105.5-67.8-149-180-189.2c-89.6-32.7-121.4-56.9-121.4-115.6c0-26.7,9.4-49,26.3-64.6h-14.3
				c-75.8,2-111.7,69.6-111.7,115.7c0,98.8,63.6,144,162.4,178.4c100.5,36.8,136.5,62.8,136.5,124.8c0,27.4-9.6,50.1-26.9,66.3h11.6
				C2003.3,481.6,2038.9,418.7,2038.9,370.3z"/>
		</g>
	</g>
	<g>
		<polygon class="st0" points="396.2,143.8 479.2,0 313.2,0 		"/>
	</g>
	<g>
		<polygon class="st0" points="1716.7,344.2 1633.7,487.9 1799.6,487.9 		"/>
	</g>
	<g>
		<polygon class="st0" points="1947.4,143.8 2030.4,0 1864.4,0 		"/>
	</g>
	<g>
		<path class="st0" d="M1524.1,240.8c0-0.3,0-0.6,0-0.9l0,0C1523.3,112.1,1444.5,1,1274.5,0.5c89.9,10.7,134.7,123.1,136.2,238.1
			c0,0.7,0,1.5,0,2.2c0,0.7,0,1.5,0,2.2c-1.5,115-46.3,227.4-136.2,238.1c170-0.5,248.9-111.6,249.6-239.4l0,0
			C1524.1,241.4,1524.1,241.1,1524.1,240.8z"/>
	</g>
	<g>
		<g>
			<path class="st0" d="M971.6,370.3c0-105.5-67.8-149-180-189.2C702,148.4,670.2,124.2,670.2,65.5c0-26.7,9.4-49,26.3-64.6h-14.3
				c-75.8,2-111.7,69.6-111.7,115.7c0,98.8,63.6,144,162.4,178.4c100.5,36.8,136.5,62.8,136.5,124.8c0,27.4-9.6,50.1-26.9,66.3h11.6
				C935.9,481.6,971.6,418.7,971.6,370.3z"/>
		</g>
	</g>
	<g>
		<polygon class="st0" points="649.3,344.2 566.3,487.9 732.3,487.9 		"/>
	</g>
	<g>
		<polygon class="st0" points="880.1,143.8 963.1,0 797.1,0 		"/>
	</g>
</g>
</svg>
